<?xml version="1.0" encoding="utf-8"?>
<!-- Generator: Adobe Illustrator 26.0.3, SVG Export Plug-In . SVG Version: 6.00 Build 0)  -->
<svg version="1.1" id="Layer_1" xmlns="http://www.w3.org/2000/svg" xmlns:xlink="http://www.w3.org/1999/xlink" x="0px" y="0px"
	 viewBox="0 0 121 30" style="enable-background:new 0 0 121 30;" xml:space="preserve">
<style type="text/css">
	.st0{fill:#FFD500;}
	.st1{fill:#005BBB;}
</style>
<g>
	<path class="st0" d="M110.99609,17.4245c0.00031,0.02539,0.00385,0.04999,0.00385,0.0755c0,3.31372-2.68628,6-6,6
		C101.68628,23.5,99,20.81372,99,17.5c0-0.02551,0.00354-0.05011,0.00385-0.0755h-6.58008
		c-0.01929,3.19501,1.17828,6.39752,3.59894,8.85223c4.84741,4.91547,12.76178,4.97064,17.67725,0.12323l0.90002,3.30005h6.39996
		l-3.18256-12.27551H110.99609z"/>
	<path class="st1" d="M117.49994,16.20001c-0.66821-6.39142-6.07379-11.23486-12.5-11.20001
		c-3.31158-0.02039-6.49597,1.27417-8.854,3.59955c-2.48016,2.44574-3.71906,5.67224-3.71912,8.90045H99
		c0-3.31372,2.68628-6,5.99994-6c3.31372,0,6,2.68628,6,6h6.83704L117.49994,16.20001z"/>
</g>
<path fill="#0A8198" d="M23.60003,29.69999V14.8c0-2.6-2.7-4-5.2-3.5c-1,0.3-2.6,1-2.8,2v16.39999h-6.7V8.9
	c2.62144-2.29473,5.92401-3.66494,9.39999-3.9c5.6-0.2,11.99999,2.5,11.99999,9.49999v15.19999
	C30.30001,29.69998,23.60003,29.69998,23.60003,29.69999z M32.40002,0.00001v26.09998c2.67062,2.34218,6.05257,3.7161,9.59999,3.9
	c0.53298,0.02737,1.06702,0.02737,1.6,0V23.7c-1,0-3.59999-0.5-4.4-1.7V12h4.4V5.30001h-4.4v-5.3
	C39.20001,0.00001,32.40002,0.00001,32.40002,0.00001z M68.49999,20H50.50001c1.41612,3.17817,5.14053,4.60659,8.3187,3.19047
	C59.51912,22.87839,60.15667,22.44106,60.7,21.9v-0.1h7.29999l-0.1,0.3c-2.57231,6.40642-9.85101,9.51458-16.25744,6.94227
	s-9.51458-9.85102-6.94227-16.25744s9.85101-9.51459,16.25743-6.94227C65.7149,7.75266,68.82361,12.37372,68.8,17.5
	c-0.02733,0.7744-0.12778,1.54449-0.3,2.3C68.5,19.8,68.5,20,68.49999,20z M62,14.8
	c-1.59399-3.09279-5.39338-4.30781-8.48617-2.71382C52.34899,12.68652,51.40035,13.63516,50.8,14.8H62z M90.69997,5.40001
	c-2.48598,0.65486-4.7818,1.88844-6.7,3.6v20.79998h6.7V5.40001z M81.89998,11.3V5c-0.63274-0.0386-1.26725-0.0386-1.89999,0
	c-3.47599,0.23505-6.77856,1.60527-9.39999,3.9v20.79998H77.2V13c0.8-1.2,3.4-1.7,4.5-1.8 M0.00005,5.40001v24.29998h6.69999V8.9
	C4.77183,7.22445,2.47679,6.02555,0.00005,5.40001"/>
</svg>
